<svg width="66" height="94" viewBox="0 0 66 94" fill="none" xmlns="http://www.w3.org/2000/svg">
<rect width="66" height="94" fill="#3D3939"/>
<g clip-path="url(#clip0_0_1)">
<rect width="1440" height="5477" transform="translate(-55 -17)" fill="#09090B"/>
<mask id="path-1-inside-1_0_1" fill="white">
<path d="M32.6818 74.4677L32.0747 74.0821C23.8498 68.86 8.54018 59.1399 4.4699 41.9592C-0.49902 20.9892 0.0121652 9.09772 0.0169606 8.98071L0.0409314 8.47433L0.527182 8.32759C0.566503 8.31608 4.53129 7.12395 15.4445 4.23812C27.0041 1.18158 32.4823 0.0412455 32.5351 0.0297367L32.6808 0L32.8266 0.0297367C32.8803 0.0412455 38.3585 1.18158 49.9162 4.23812C60.8294 7.12395 64.7942 8.31608 64.8335 8.32759L65.3198 8.47433L65.3438 8.98071C65.3495 9.09772 65.8597 20.9892 60.8908 41.9592C56.8215 59.138 41.5138 68.8581 33.2899 74.0802L32.6818 74.4677ZM1.44213 9.55806C1.40665 12.0152 1.52653 23.2957 5.86918 41.6283C9.78025 58.1338 24.0464 67.2804 32.6818 72.7634C41.3163 67.2804 55.5833 58.1338 59.4935 41.6283C63.8419 23.2727 63.957 12.0114 63.9215 9.55806C62.5625 9.16197 58.2956 7.94107 49.5508 5.62876C39.0721 2.85802 33.6188 1.66879 32.6818 1.4693C31.7458 1.66879 26.2915 2.85802 15.8118 5.62876C7.06801 7.94107 2.80113 9.16197 1.44213 9.55806Z"/>
</mask>
<path d="M32.6818 74.4677L32.0747 74.0821C23.8498 68.86 8.54018 59.1399 4.4699 41.9592C-0.49902 20.9892 0.0121652 9.09772 0.0169606 8.98071L0.0409314 8.47433L0.527182 8.32759C0.566503 8.31608 4.53129 7.12395 15.4445 4.23812C27.0041 1.18158 32.4823 0.0412455 32.5351 0.0297367L32.6808 0L32.8266 0.0297367C32.8803 0.0412455 38.3585 1.18158 49.9162 4.23812C60.8294 7.12395 64.7942 8.31608 64.8335 8.32759L65.3198 8.47433L65.3438 8.98071C65.3495 9.09772 65.8597 20.9892 60.8908 41.9592C56.8215 59.138 41.5138 68.8581 33.2899 74.0802L32.6818 74.4677ZM1.44213 9.55806C1.40665 12.0152 1.52653 23.2957 5.86918 41.6283C9.78025 58.1338 24.0464 67.2804 32.6818 72.7634C41.3163 67.2804 55.5833 58.1338 59.4935 41.6283C63.8419 23.2727 63.957 12.0114 63.9215 9.55806C62.5625 9.16197 58.2956 7.94107 49.5508 5.62876C39.0721 2.85802 33.6188 1.66879 32.6818 1.4693C31.7458 1.66879 26.2915 2.85802 15.8118 5.62876C7.06801 7.94107 2.80113 9.16197 1.44213 9.55806Z" fill="#00C49D"/>
<path d="M32.6818 74.4677L21.3702 92.2788L32.7007 99.4746L44.0203 92.2617L32.6818 74.4677ZM32.0747 74.0821L43.3863 56.271L43.3841 56.2696L32.0747 74.0821ZM4.4699 41.9592L25.0011 37.0951L25.0009 37.0943L4.4699 41.9592ZM0.0169606 8.98071L-21.0589 7.98305L-21.0621 8.04987L-21.0648 8.1167L0.0169606 8.98071ZM0.0409314 8.47433L-6.0548 -11.7254L-20.3299 -7.41759L-21.0349 7.47666L0.0409314 8.47433ZM0.527182 8.32759L-5.39963 -11.9224L-5.4842 -11.8976L-5.56855 -11.8722L0.527182 8.32759ZM15.4445 4.23812L10.0508 -16.1603L10.0505 -16.1602L15.4445 4.23812ZM32.5351 0.0297367L28.3177 -20.644L28.1773 -20.6153L28.0374 -20.5848L32.5351 0.0297367ZM32.6808 0L36.8978 -20.6738L32.6806 -21.534L28.4635 -20.6737L32.6808 0ZM32.8266 0.0297367L37.2476 -20.6014L37.1457 -20.6232L37.0436 -20.644L32.8266 0.0297367ZM49.9162 4.23812L44.5217 24.6363L44.5222 24.6365L49.9162 4.23812ZM64.8335 8.32759L70.9293 -11.8722L70.8449 -11.8976L70.7604 -11.9224L64.8335 8.32759ZM65.3198 8.47433L86.3957 7.47666L85.6906 -7.41759L71.4155 -11.7254L65.3198 8.47433ZM65.3438 8.98071L44.2679 9.97838L44.2688 9.99776L44.2698 10.0171L65.3438 8.98071ZM60.8908 41.9592L40.3599 37.0943L40.3595 37.0957L60.8908 41.9592ZM33.2899 74.0802L21.9795 56.2683L21.9655 56.2773L21.9514 56.2862L33.2899 74.0802ZM1.44213 9.55806L-4.46187 -10.6986L-19.43 -6.33593L-19.6551 9.25338L1.44213 9.55806ZM5.86918 41.6283L-14.6621 46.4918L-14.6618 46.4932L5.86918 41.6283ZM32.6818 72.7634L21.3721 90.5757L32.6824 97.7571L43.9924 90.5751L32.6818 72.7634ZM59.4935 41.6283L38.9622 36.7645L38.9622 36.7645L59.4935 41.6283ZM63.9215 9.55806L85.0187 9.2529L84.7933 -6.33603L69.8255 -10.6986L63.9215 9.55806ZM49.5508 5.62876L54.9446 -14.7696L54.9445 -14.7697L49.5508 5.62876ZM32.6818 1.4693L37.0753 -19.1677L32.6796 -20.1035L28.284 -19.1667L32.6818 1.4693ZM15.8118 5.62876L10.4186 -14.7698L10.4175 -14.7695L15.8118 5.62876ZM43.9934 56.6566L43.3863 56.271L20.7631 91.8932L21.3702 92.2788L43.9934 56.6566ZM43.3841 56.2696C39.2063 53.6171 35.0548 50.9187 31.4441 47.3982C27.9427 43.9842 25.8362 40.6201 25.0011 37.0951L-16.0613 46.8232C-9.7506 73.4606 13.4745 87.2656 20.7653 91.8947L43.3841 56.2696ZM25.0009 37.0943C22.7609 27.641 21.8038 20.4361 21.3968 15.8036C21.1932 13.4863 21.1271 11.8096 21.1072 10.8141C21.0973 10.3164 21.099 9.98858 21.1009 9.83583C21.1019 9.7595 21.1029 9.7265 21.1026 9.73744C21.1024 9.74298 21.102 9.75879 21.101 9.7849C21.0999 9.81707 21.0985 9.84995 21.0987 9.84472L-21.0648 8.1167C-21.064 8.09595 -21.0655 8.13327 -21.0666 8.16079C-21.0678 8.19204 -21.0692 8.22759 -21.0706 8.26729C-21.0735 8.34654 -21.0765 8.43832 -21.0794 8.54251C-21.0853 8.75074 -21.0909 9.00569 -21.0947 9.30667C-21.1022 9.90854 -21.1025 10.6928 -21.0833 11.654C-21.0451 13.5764 -20.9294 16.2051 -20.6402 19.4965C-20.0618 26.0815 -18.79 35.3073 -16.0611 46.8241L25.0009 37.0943ZM21.0928 9.97838L21.1168 9.47199L-21.0349 7.47666L-21.0589 7.98305L21.0928 9.97838ZM6.13666 28.6741L6.62291 28.5273L-5.56855 -11.8722L-6.0548 -11.7254L6.13666 28.6741ZM6.454 28.5775C6.48953 28.5671 7.37212 28.3011 9.5918 27.6803C11.8423 27.0508 15.4642 26.0576 20.8385 24.6365L10.0505 -16.1602C4.51161 -14.6955 0.694499 -13.6497 -1.77553 -12.9588C-3.01111 -12.6132 -3.9117 -12.3558 -4.52398 -12.1787C-5.08466 -12.0165 -5.55931 -11.8756 -5.39963 -11.9224L6.454 28.5775ZM20.8382 24.6366C26.4486 23.1531 30.532 22.1481 33.1706 21.5228C35.7758 20.9054 36.9708 20.6578 37.0328 20.6442L28.0374 -20.5848C28.0466 -20.5868 26.4761 -20.2585 23.4391 -19.5387C20.4355 -18.8269 16 -17.7334 10.0508 -16.1603L20.8382 24.6366ZM36.7524 20.7034L36.8982 20.6737L28.4635 -20.6737L28.3177 -20.644L36.7524 20.7034ZM28.4639 20.6738L28.6097 20.7035L37.0436 -20.644L36.8978 -20.6738L28.4639 20.6738ZM28.4057 20.6608C28.4707 20.6748 28.7116 20.7245 29.3075 20.8572C29.9146 20.9924 30.8725 21.2102 32.1915 21.5228C34.8297 22.148 38.9124 23.1529 44.5217 24.6363L55.3107 -16.1601C49.3624 -17.7332 44.9271 -18.8268 41.9233 -19.5387C40.4214 -19.8947 39.2773 -20.1552 38.481 -20.3326C37.6734 -20.5124 37.2094 -20.6096 37.2476 -20.6014L28.4057 20.6608ZM44.5222 24.6365C49.8966 26.0576 53.5184 27.0508 55.7689 27.6803C57.9886 28.3011 58.8712 28.5671 58.9067 28.5775L70.7604 -11.9224C70.92 -11.8756 70.4454 -12.0165 69.8847 -12.1787C69.2724 -12.3558 68.3718 -12.6132 67.1363 -12.9588C64.6662 -13.6497 60.8491 -14.6955 55.3103 -16.1602L44.5222 24.6365ZM58.7378 28.5273L59.2241 28.6741L71.4155 -11.7254L70.9293 -11.8722L58.7378 28.5273ZM44.2439 9.47199L44.2679 9.97838L86.4196 7.98305L86.3957 7.47666L44.2439 9.47199ZM44.2698 10.0171C44.1838 8.26979 44.8445 18.1682 40.3599 37.0943L81.4218 46.8241C86.875 23.8102 86.5152 9.92565 86.4178 7.94429L44.2698 10.0171ZM40.3595 37.0957C39.5247 40.6198 37.4187 43.9834 33.9178 47.3972C30.3078 50.9174 26.1568 53.6158 21.9795 56.2683L44.6002 91.8922C51.8901 87.2632 75.1128 73.4579 81.4221 46.8226L40.3595 37.0957ZM21.9514 56.2862L21.3433 56.6737L44.0203 92.2617L44.6283 91.8742L21.9514 56.2862ZM-19.6551 9.25338C-19.7138 13.318 -19.4351 26.3426 -14.6621 46.4918L26.4005 36.7648C22.4881 20.2489 22.5271 10.7124 22.5394 9.86274L-19.6551 9.25338ZM-14.6618 46.4932C-8.52104 72.4084 13.5673 85.6201 21.3721 90.5757L43.9915 54.9511C39.6057 52.1664 35.6381 49.5606 32.2766 46.2643C29.0737 43.1236 27.1818 40.0621 26.4001 36.7634L-14.6618 46.4932ZM43.9924 90.5751C51.7944 85.6208 73.8852 72.4083 80.0247 46.4921L38.9622 36.7645C38.181 40.0624 36.2895 43.1235 33.0865 46.2643C29.7249 49.5607 25.7574 52.1664 21.3712 54.9517L43.9924 90.5751ZM80.0247 46.4921C84.8037 26.3187 85.0775 13.3128 85.0187 9.2529L42.8242 9.86322C42.8365 10.7099 42.88 20.2268 38.9622 36.7645L80.0247 46.4921ZM69.8255 -10.6986C68.2601 -11.1548 63.8184 -12.4232 54.9446 -14.7696L44.157 26.0272C52.7728 28.3054 56.8648 29.4787 58.0175 29.8147L69.8255 -10.6986ZM54.9445 -14.7697C44.1634 -17.6203 38.3758 -18.8908 37.0753 -19.1677L28.2883 22.1063C28.8618 22.2284 33.9807 23.3364 44.1572 26.0272L54.9445 -14.7697ZM28.284 -19.1667C26.989 -18.8908 21.2023 -17.6209 10.4186 -14.7698L21.205 26.0273C31.3808 23.3369 36.5025 22.2284 37.0797 22.1054L28.284 -19.1667ZM10.4175 -14.7695C1.54489 -12.4231 -2.89671 -11.1547 -4.46187 -10.6986L7.34614 29.8147C8.49897 29.4787 12.5911 28.3053 21.2062 26.027L10.4175 -14.7695Z" fill="#00FF0A" mask="url(#path-1-inside-1_0_1)"/>
<path d="M32.7422 2.8772C32.7422 2.8772 37.7673 3.91662 48.6751 6.80016C58.9781 9.52509 62.5892 10.6147 62.5892 10.6147C62.5892 10.6147 63.1206 21.5135 58.4467 41.2395C54.6743 57.1644 40.6025 65.9789 32.7422 70.9709C24.8819 65.9789 10.811 57.1644 7.03769 41.2395C2.36382 21.5135 2.89519 10.6147 2.89519 10.6147C2.89519 10.6147 6.50633 9.52509 16.8093 6.80016C27.7171 3.91662 32.7422 2.8772 32.7422 2.8772Z" fill="url(#paint0_linear_0_1)"/>
<path d="M32.6086 8.63159C32.6086 8.63159 36.8043 9.49945 45.9116 11.907C54.514 14.1822 57.5291 15.092 57.5291 15.092C57.5291 15.092 57.9727 24.1918 54.0703 40.6619C50.9206 53.9582 39.1714 61.3178 32.6086 65.4858C26.0457 61.3178 14.2973 53.9582 11.1468 40.6619C7.24441 24.1918 7.68808 15.092 7.68808 15.092C7.68808 15.092 10.7032 14.1822 19.3055 11.907C28.4129 9.49945 32.6086 8.63159 32.6086 8.63159Z" fill="#0C052D"/>
<path d="M31.6802 21.8705C25.4928 22.2047 19.7578 23.7492 14.2563 26.9277C13.9412 24.7379 13.6028 22.7783 13.428 20.8043C13.3969 20.4531 13.9729 19.912 14.3913 19.6781C18.6302 17.3091 23.2088 15.9791 28.0244 15.5391C35.8645 14.8227 43.4178 16.1172 50.7379 18.9564C51.4664 19.239 51.66 19.6251 51.6599 20.3436C51.6592 24.7708 50.5434 28.9557 48.9666 33.0447C48.9161 33.1758 48.786 33.2763 48.5502 33.5672C47.9511 32.435 47.4061 31.4207 46.8756 30.3989C45.8087 28.3443 44.7858 26.2654 43.6593 24.2441C43.4126 23.8016 42.8564 23.4009 42.3606 23.2489C38.9214 22.1942 35.3905 21.7567 31.6802 21.8705Z" fill="#00FF0A"/>
<path d="M29.528 31.4227C24.9193 32.1105 21.1571 33.1966 17.2631 35.9653C16.8724 34.3482 15.8245 33.5677 15.7877 31.9153C15.7877 31.6494 16.1325 31.2088 16.4292 31.0041C19.4353 28.9307 22.769 27.6112 26.3432 26.9412C32.1621 25.8504 37.9086 26.2853 43.5897 27.8932C44.1551 28.0532 44.3273 28.3286 44.3781 28.8665C44.6906 32.181 44.1513 35.3931 43.26 38.5659C43.2314 38.6676 43.1412 38.7521 42.9852 38.9866C42.4566 38.1813 41.9768 37.4604 41.5074 36.733C40.5633 35.2702 39.6505 33.7861 38.6641 32.3526C38.4482 32.0387 38.0034 31.7781 37.6215 31.6993C34.9721 31.1529 32.2977 31.0751 29.528 31.4227Z" fill="url(#paint1_linear_0_1)"/>
<path d="M27.0086 40.6428C23.6749 37.3869 21.201 33.6657 19.6745 29.1291C18.4037 30.2207 17.2345 31.1695 16.1507 32.2076C16.1325 32.5371 16.1174 32.8242 16.1338 33.3265C17.3499 36.7763 19.2765 39.8025 21.7813 42.4389C25.8593 46.7313 30.7784 49.7359 36.3363 51.7447C36.8894 51.9447 37.1916 51.8206 37.55 51.4112C39.7585 48.8884 41.2154 45.9512 42.3635 42.8403C42.4004 42.7405 42.3769 42.6188 42.3886 42.3362C41.4848 42.6845 40.6704 42.9924 39.8604 43.3117C38.2317 43.9539 36.6157 44.6316 34.9699 45.2251C34.6096 45.355 34.095 45.3077 33.7387 45.1488C31.2668 44.0458 29.0509 42.5458 27.0086 40.6428Z" fill="url(#paint2_linear_0_1)"/>
<path d="M38.7393 25.7788L44.9132 27.755L44.804 39.4893L37.661 38.9024L38.7393 25.7788Z" fill="#0C052D"/>
<rect x="33.9287" y="40.5449" width="12.3528" height="13.1678" transform="rotate(-5.57965 33.9287 40.5449)" fill="#0C052D"/>
<g filter="url(#filter0_f_0_1)">
<path d="M40.7604 74.0401C40.7604 76.7903 37.4037 83.9998 31.6493 83.9999C27.3335 84 22.0586 76.7907 22.0586 74.0405C22.0586 71.2903 26.3743 71.1844 31.6493 74.0409C36.9241 71.1636 40.7604 71.2899 40.7604 74.0401Z" fill="#01FE0C" fill-opacity="0.74"/>
</g>
<mask id="path-11-inside-2_0_1" fill="white">
<path d="M32.6818 74.4677L32.0747 74.0821C23.8498 68.86 8.54018 59.1399 4.4699 41.9592C-0.49902 20.9892 0.0121652 9.09772 0.0169606 8.98071L0.0409314 8.47433L0.527182 8.32759C0.566503 8.31608 4.53129 7.12395 15.4445 4.23812C27.0041 1.18158 32.4823 0.0412455 32.5351 0.0297367L32.6808 0L32.8266 0.0297367C32.8803 0.0412455 38.3585 1.18158 49.9162 4.23812C60.8294 7.12395 64.7942 8.31608 64.8335 8.32759L65.3198 8.47433L65.3438 8.98071C65.3495 9.09772 65.8597 20.9892 60.8908 41.9592C56.8215 59.138 41.5138 68.8581 33.2899 74.0802L32.6818 74.4677ZM1.44213 9.55806C1.40665 12.0152 1.52653 23.2957 5.86918 41.6283C9.78025 58.1338 24.0464 67.2804 32.6818 72.7634C41.3163 67.2804 55.5833 58.1338 59.4935 41.6283C63.8419 23.2727 63.957 12.0114 63.9215 9.55806C62.5625 9.16197 58.2956 7.94107 49.5508 5.62876C39.0721 2.85802 33.6188 1.66879 32.6818 1.4693C31.7458 1.66879 26.2915 2.85802 15.8118 5.62876C7.06801 7.94107 2.80113 9.16197 1.44213 9.55806Z"/>
</mask>
<path d="M32.6818 74.4677L32.0747 74.0821C23.8498 68.86 8.54018 59.1399 4.4699 41.9592C-0.49902 20.9892 0.0121652 9.09772 0.0169606 8.98071L0.0409314 8.47433L0.527182 8.32759C0.566503 8.31608 4.53129 7.12395 15.4445 4.23812C27.0041 1.18158 32.4823 0.0412455 32.5351 0.0297367L32.6808 0L32.8266 0.0297367C32.8803 0.0412455 38.3585 1.18158 49.9162 4.23812C60.8294 7.12395 64.7942 8.31608 64.8335 8.32759L65.3198 8.47433L65.3438 8.98071C65.3495 9.09772 65.8597 20.9892 60.8908 41.9592C56.8215 59.138 41.5138 68.8581 33.2899 74.0802L32.6818 74.4677ZM1.44213 9.55806C1.40665 12.0152 1.52653 23.2957 5.86918 41.6283C9.78025 58.1338 24.0464 67.2804 32.6818 72.7634C41.3163 67.2804 55.5833 58.1338 59.4935 41.6283C63.8419 23.2727 63.957 12.0114 63.9215 9.55806C62.5625 9.16197 58.2956 7.94107 49.5508 5.62876C39.0721 2.85802 33.6188 1.66879 32.6818 1.4693C31.7458 1.66879 26.2915 2.85802 15.8118 5.62876C7.06801 7.94107 2.80113 9.16197 1.44213 9.55806Z" fill="#00C49D"/>
<path d="M32.6818 74.4677L21.3702 92.2788L32.7007 99.4746L44.0203 92.2617L32.6818 74.4677ZM32.0747 74.0821L43.3863 56.271L43.3841 56.2696L32.0747 74.0821ZM4.4699 41.9592L25.0011 37.0951L25.0009 37.0943L4.4699 41.9592ZM0.0169606 8.98071L-21.0589 7.98305L-21.0621 8.04987L-21.0648 8.1167L0.0169606 8.98071ZM0.0409314 8.47433L-6.0548 -11.7254L-20.3299 -7.41759L-21.0349 7.47666L0.0409314 8.47433ZM0.527182 8.32759L-5.39963 -11.9224L-5.4842 -11.8976L-5.56855 -11.8722L0.527182 8.32759ZM15.4445 4.23812L10.0508 -16.1603L10.0505 -16.1602L15.4445 4.23812ZM32.5351 0.0297367L28.3177 -20.644L28.1773 -20.6153L28.0374 -20.5848L32.5351 0.0297367ZM32.6808 0L36.8978 -20.6738L32.6806 -21.534L28.4635 -20.6737L32.6808 0ZM32.8266 0.0297367L37.2476 -20.6014L37.1457 -20.6232L37.0436 -20.644L32.8266 0.0297367ZM49.9162 4.23812L44.5217 24.6363L44.5222 24.6365L49.9162 4.23812ZM64.8335 8.32759L70.9293 -11.8722L70.8449 -11.8976L70.7604 -11.9224L64.8335 8.32759ZM65.3198 8.47433L86.3957 7.47666L85.6906 -7.41759L71.4155 -11.7254L65.3198 8.47433ZM65.3438 8.98071L44.2679 9.97838L44.2688 9.99776L44.2698 10.0171L65.3438 8.98071ZM60.8908 41.9592L40.3599 37.0943L40.3595 37.0957L60.8908 41.9592ZM33.2899 74.0802L21.9795 56.2683L21.9655 56.2773L21.9514 56.2862L33.2899 74.0802ZM1.44213 9.55806L-4.46187 -10.6986L-19.43 -6.33593L-19.6551 9.25338L1.44213 9.55806ZM5.86918 41.6283L-14.6621 46.4918L-14.6618 46.4932L5.86918 41.6283ZM32.6818 72.7634L21.3721 90.5757L32.6824 97.7571L43.9924 90.5751L32.6818 72.7634ZM59.4935 41.6283L38.9622 36.7645L38.9622 36.7645L59.4935 41.6283ZM63.9215 9.55806L85.0187 9.2529L84.7933 -6.33603L69.8255 -10.6986L63.9215 9.55806ZM49.5508 5.62876L54.9446 -14.7696L54.9445 -14.7697L49.5508 5.62876ZM32.6818 1.4693L37.0753 -19.1677L32.6796 -20.1035L28.284 -19.1667L32.6818 1.4693ZM15.8118 5.62876L10.4186 -14.7698L10.4175 -14.7695L15.8118 5.62876ZM43.9934 56.6566L43.3863 56.271L20.7631 91.8932L21.3702 92.2788L43.9934 56.6566ZM43.3841 56.2696C39.2063 53.6171 35.0548 50.9187 31.4441 47.3982C27.9427 43.9842 25.8362 40.6201 25.0011 37.0951L-16.0613 46.8232C-9.7506 73.4606 13.4745 87.2656 20.7653 91.8947L43.3841 56.2696ZM25.0009 37.0943C22.7609 27.641 21.8038 20.4361 21.3968 15.8036C21.1932 13.4863 21.1271 11.8096 21.1072 10.8141C21.0973 10.3164 21.099 9.98858 21.1009 9.83583C21.1019 9.7595 21.1029 9.7265 21.1026 9.73744C21.1024 9.74298 21.102 9.75879 21.101 9.7849C21.0999 9.81707 21.0985 9.84995 21.0987 9.84472L-21.0648 8.1167C-21.064 8.09595 -21.0655 8.13327 -21.0666 8.16079C-21.0678 8.19204 -21.0692 8.22759 -21.0706 8.26729C-21.0735 8.34654 -21.0765 8.43832 -21.0794 8.54251C-21.0853 8.75074 -21.0909 9.00569 -21.0947 9.30667C-21.1022 9.90854 -21.1025 10.6928 -21.0833 11.654C-21.0451 13.5764 -20.9294 16.2051 -20.6402 19.4965C-20.0618 26.0815 -18.79 35.3073 -16.0611 46.8241L25.0009 37.0943ZM21.0928 9.97838L21.1168 9.47199L-21.0349 7.47666L-21.0589 7.98305L21.0928 9.97838ZM6.13666 28.6741L6.62291 28.5273L-5.56855 -11.8722L-6.0548 -11.7254L6.13666 28.6741ZM6.454 28.5775C6.48953 28.5671 7.37212 28.3011 9.5918 27.6803C11.8423 27.0508 15.4642 26.0576 20.8385 24.6365L10.0505 -16.1602C4.51161 -14.6955 0.694499 -13.6497 -1.77553 -12.9588C-3.01111 -12.6132 -3.9117 -12.3558 -4.52398 -12.1787C-5.08466 -12.0165 -5.55931 -11.8756 -5.39963 -11.9224L6.454 28.5775ZM20.8382 24.6366C26.4486 23.1531 30.532 22.1481 33.1706 21.5228C35.7758 20.9054 36.9708 20.6578 37.0328 20.6442L28.0374 -20.5848C28.0466 -20.5868 26.4761 -20.2585 23.4391 -19.5387C20.4355 -18.8269 16 -17.7334 10.0508 -16.1603L20.8382 24.6366ZM36.7524 20.7034L36.8982 20.6737L28.4635 -20.6737L28.3177 -20.644L36.7524 20.7034ZM28.4639 20.6738L28.6097 20.7035L37.0436 -20.644L36.8978 -20.6738L28.4639 20.6738ZM28.4057 20.6608C28.4707 20.6748 28.7116 20.7245 29.3075 20.8572C29.9146 20.9924 30.8725 21.2102 32.1915 21.5228C34.8297 22.148 38.9124 23.1529 44.5217 24.6363L55.3107 -16.1601C49.3624 -17.7332 44.9271 -18.8268 41.9233 -19.5387C40.4214 -19.8947 39.2773 -20.1552 38.481 -20.3326C37.6734 -20.5124 37.2094 -20.6096 37.2476 -20.6014L28.4057 20.6608ZM44.5222 24.6365C49.8966 26.0576 53.5184 27.0508 55.7689 27.6803C57.9886 28.3011 58.8712 28.5671 58.9067 28.5775L70.7604 -11.9224C70.92 -11.8756 70.4454 -12.0165 69.8847 -12.1787C69.2724 -12.3558 68.3718 -12.6132 67.1363 -12.9588C64.6662 -13.6497 60.8491 -14.6955 55.3103 -16.1602L44.5222 24.6365ZM58.7378 28.5273L59.2241 28.6741L71.4155 -11.7254L70.9293 -11.8722L58.7378 28.5273ZM44.2439 9.47199L44.2679 9.97838L86.4196 7.98305L86.3957 7.47666L44.2439 9.47199ZM44.2698 10.0171C44.1838 8.26979 44.8445 18.1682 40.3599 37.0943L81.4218 46.8241C86.875 23.8102 86.5152 9.92565 86.4178 7.94429L44.2698 10.0171ZM40.3595 37.0957C39.5247 40.6198 37.4187 43.9834 33.9178 47.3972C30.3078 50.9174 26.1568 53.6158 21.9795 56.2683L44.6002 91.8922C51.8901 87.2632 75.1128 73.4579 81.4221 46.8226L40.3595 37.0957ZM21.9514 56.2862L21.3433 56.6737L44.0203 92.2617L44.6283 91.8742L21.9514 56.2862ZM-19.6551 9.25338C-19.7138 13.318 -19.4351 26.3426 -14.6621 46.4918L26.4005 36.7648C22.4881 20.2489 22.5271 10.7124 22.5394 9.86274L-19.6551 9.25338ZM-14.6618 46.4932C-8.52104 72.4084 13.5673 85.6201 21.3721 90.5757L43.9915 54.9511C39.6057 52.1664 35.6381 49.5606 32.2766 46.2643C29.0737 43.1236 27.1818 40.0621 26.4001 36.7634L-14.6618 46.4932ZM43.9924 90.5751C51.7944 85.6208 73.8852 72.4083 80.0247 46.4921L38.9622 36.7645C38.181 40.0624 36.2895 43.1235 33.0865 46.2643C29.7249 49.5607 25.7574 52.1664 21.3712 54.9517L43.9924 90.5751ZM80.0247 46.4921C84.8037 26.3187 85.0775 13.3128 85.0187 9.2529L42.8242 9.86322C42.8365 10.7099 42.88 20.2268 38.9622 36.7645L80.0247 46.4921ZM69.8255 -10.6986C68.2601 -11.1548 63.8184 -12.4232 54.9446 -14.7696L44.157 26.0272C52.7728 28.3054 56.8648 29.4787 58.0175 29.8147L69.8255 -10.6986ZM54.9445 -14.7697C44.1634 -17.6203 38.3758 -18.8908 37.0753 -19.1677L28.2883 22.1063C28.8618 22.2284 33.9807 23.3364 44.1572 26.0272L54.9445 -14.7697ZM28.284 -19.1667C26.989 -18.8908 21.2023 -17.6209 10.4186 -14.7698L21.205 26.0273C31.3808 23.3369 36.5025 22.2284 37.0797 22.1054L28.284 -19.1667ZM10.4175 -14.7695C1.54489 -12.4231 -2.89671 -11.1547 -4.46187 -10.6986L7.34614 29.8147C8.49897 29.4787 12.5911 28.3053 21.2062 26.027L10.4175 -14.7695Z" fill="#00FF0A" mask="url(#path-11-inside-2_0_1)"/>
<path d="M32.7422 2.8772C32.7422 2.8772 37.7673 3.91662 48.6751 6.80016C58.9781 9.52509 62.5892 10.6147 62.5892 10.6147C62.5892 10.6147 63.1206 21.5135 58.4467 41.2395C54.6743 57.1644 40.6025 65.9789 32.7422 70.9709C24.8819 65.9789 10.811 57.1644 7.03769 41.2395C2.36382 21.5135 2.89519 10.6147 2.89519 10.6147C2.89519 10.6147 6.50633 9.52509 16.8093 6.80016C27.7171 3.91662 32.7422 2.8772 32.7422 2.8772Z" fill="url(#paint3_linear_0_1)"/>
<path d="M32.6086 8.63159C32.6086 8.63159 36.8043 9.49945 45.9116 11.907C54.514 14.1822 57.5291 15.092 57.5291 15.092C57.5291 15.092 57.9727 24.1918 54.0703 40.6619C50.9206 53.9582 39.1714 61.3178 32.6086 65.4858C26.0457 61.3178 14.2973 53.9582 11.1468 40.6619C7.24441 24.1918 7.68808 15.092 7.68808 15.092C7.68808 15.092 10.7032 14.1822 19.3055 11.907C28.4129 9.49945 32.6086 8.63159 32.6086 8.63159Z" fill="#0C052D"/>
<path d="M31.6802 21.8705C25.4928 22.2047 19.7578 23.7492 14.2563 26.9277C13.9412 24.7379 13.6028 22.7783 13.428 20.8043C13.3969 20.4531 13.9729 19.912 14.3913 19.6781C18.6302 17.3091 23.2088 15.9791 28.0244 15.5391C35.8645 14.8227 43.4178 16.1172 50.7379 18.9564C51.4664 19.239 51.66 19.6251 51.6599 20.3436C51.6592 24.7708 50.5434 28.9557 48.9666 33.0447C48.9161 33.1758 48.786 33.2763 48.5502 33.5672C47.9511 32.435 47.4061 31.4207 46.8756 30.3989C45.8087 28.3443 44.7858 26.2654 43.6593 24.2441C43.4126 23.8016 42.8564 23.4009 42.3606 23.2489C38.9214 22.1942 35.3905 21.7567 31.6802 21.8705Z" fill="#00FF0A"/>
<path d="M29.528 31.4227C24.9193 32.1105 21.1571 33.1966 17.2631 35.9653C16.8724 34.3482 15.8245 33.5677 15.7877 31.9153C15.7877 31.6494 16.1325 31.2088 16.4292 31.0041C19.4353 28.9307 22.769 27.6112 26.3432 26.9412C32.1621 25.8504 37.9086 26.2853 43.5897 27.8932C44.1551 28.0532 44.3273 28.3286 44.3781 28.8665C44.6906 32.181 44.1513 35.3931 43.26 38.5659C43.2314 38.6676 43.1412 38.7521 42.9852 38.9866C42.4566 38.1813 41.9768 37.4604 41.5074 36.733C40.5633 35.2702 39.6505 33.7861 38.6641 32.3526C38.4482 32.0387 38.0034 31.7781 37.6215 31.6993C34.9721 31.1529 32.2977 31.0751 29.528 31.4227Z" fill="url(#paint4_linear_0_1)"/>
<path d="M27.0086 40.6428C23.6749 37.3869 21.201 33.6657 19.6745 29.1291C18.4037 30.2207 17.2345 31.1695 16.1507 32.2076C16.1325 32.5371 16.1174 32.8242 16.1338 33.3265C17.3499 36.7763 19.2765 39.8025 21.7813 42.4389C25.8593 46.7313 30.7784 49.7359 36.3363 51.7447C36.8894 51.9447 37.1916 51.8206 37.55 51.4112C39.7585 48.8884 41.2154 45.9512 42.3635 42.8403C42.4004 42.7405 42.3769 42.6188 42.3886 42.3362C41.4848 42.6845 40.6704 42.9924 39.8604 43.3117C38.2317 43.9539 36.6157 44.6316 34.9699 45.2251C34.6096 45.355 34.095 45.3077 33.7387 45.1488C31.2668 44.0458 29.0509 42.5458 27.0086 40.6428Z" fill="url(#paint5_linear_0_1)"/>
<path d="M38.7393 25.7788L44.9132 27.755L44.804 39.4893L37.661 38.9024L38.7393 25.7788Z" fill="#0C052D"/>
<rect x="33.9287" y="40.5449" width="12.3528" height="13.1678" transform="rotate(-5.57965 33.9287 40.5449)" fill="#0C052D"/>
<path d="M30.211 58.7144H35.2001L35.9654 72.4092L32.6087 74.539L29.252 72.4092L30.211 58.7144Z" fill="#0C052D"/>
</g>
<defs>
<filter id="filter0_f_0_1" x="12.2194" y="62.0908" width="38.3805" height="31.7484" filterUnits="userSpaceOnUse" color-interpolation-filters="sRGB">
<feFlood flood-opacity="0" result="BackgroundImageFix"/>
<feBlend mode="normal" in="SourceGraphic" in2="BackgroundImageFix" result="shape"/>
<feGaussianBlur stdDeviation="4.91958" result="effect1_foregroundBlur_0_1"/>
</filter>
<linearGradient id="paint0_linear_0_1" x1="32.7422" y1="2.8772" x2="32.7422" y2="70.9709" gradientUnits="userSpaceOnUse">
<stop stop-color="#0A3587"/>
<stop offset="1" stop-color="#10306D"/>
</linearGradient>
<linearGradient id="paint1_linear_0_1" x1="29.7081" y1="26.4767" x2="30.9968" y2="40.1191" gradientUnits="userSpaceOnUse">
<stop stop-color="#00FF0A"/>
<stop offset="1" stop-color="#009906"/>
</linearGradient>
<linearGradient id="paint2_linear_0_1" x1="24.2413" y1="44.7886" x2="33.3333" y2="34.4063" gradientUnits="userSpaceOnUse">
<stop stop-color="#00FF0A"/>
<stop offset="1" stop-color="#009906"/>
</linearGradient>
<linearGradient id="paint3_linear_0_1" x1="32.7422" y1="2.8772" x2="32.7422" y2="70.9709" gradientUnits="userSpaceOnUse">
<stop stop-color="#0A3587"/>
<stop offset="1" stop-color="#10306D"/>
</linearGradient>
<linearGradient id="paint4_linear_0_1" x1="29.7081" y1="26.4767" x2="30.9968" y2="40.1191" gradientUnits="userSpaceOnUse">
<stop stop-color="#00FF0A"/>
<stop offset="1" stop-color="#009906"/>
</linearGradient>
<linearGradient id="paint5_linear_0_1" x1="24.2413" y1="44.7886" x2="33.3333" y2="34.4063" gradientUnits="userSpaceOnUse">
<stop stop-color="#00FF0A"/>
<stop offset="1" stop-color="#009906"/>
</linearGradient>
<clipPath id="clip0_0_1">
<rect width="1440" height="5477" fill="white" transform="translate(-55 -17)"/>
</clipPath>
</defs>
</svg>
